<?xml version="1.0" encoding="utf-8"?>
<!-- Generator: Adobe Illustrator 22.0.1, SVG Export Plug-In . SVG Version: 6.00 Build 0)  -->
<svg version="1.1" xmlns="http://www.w3.org/2000/svg" xmlns:xlink="http://www.w3.org/1999/xlink" x="0px" y="0px"
	 viewBox="0 0 792 1224" style="enable-background:new 0 0 792 1224;" xml:space="preserve">
<style type="text/css">
	.st0{fill:url(#SVGID_1_);stroke:#000000;stroke-miterlimit:10;}
	.st1{fill:none;stroke:#000000;stroke-miterlimit:10;}
	.st2{fill:#FACFE1;stroke:#000000;stroke-miterlimit:10;}
	.st3{fill:url(#SVGID_2_);stroke:#000000;stroke-miterlimit:10;}
	.st4{fill:#FFF04D;stroke:#000000;stroke-miterlimit:10;}
	.st5{fill:#F8EE50;stroke:#000000;stroke-miterlimit:10;}
	.st6{fill:#AED252;stroke:#000000;stroke-miterlimit:10;}
	.st7{fill:#87A93E;stroke:#000000;stroke-miterlimit:10;}
	.st8{fill:#EE787E;stroke:#000000;stroke-miterlimit:10;}
	.st9{fill:none;stroke:#000000;stroke-width:0.9;stroke-miterlimit:10;}
	.st10{fill:#D3E27E;stroke:#000000;stroke-miterlimit:10;}
	.st11{fill:#669940;stroke:#000000;stroke-miterlimit:10;}
	.st12{fill:none;stroke:#FFFFFF;stroke-width:10;stroke-miterlimit:10;}
	.st13{fill:none;}
	.st14{font-family:'Futura-Medium';}
	.st15{font-size:18px;}
	.st16{font-family:'Futura-Bold';}
	.st17{font-size:95px;}
	.st18{font-size:24px;}
</style>
<g id="background">
	<linearGradient id="SVGID_1_" gradientUnits="userSpaceOnUse" x1="396" y1="0" x2="396" y2="1224">
		<stop  offset="0" style="stop-color:#D7DF23;stop-opacity:0.7"/>
		<stop  offset="1" style="stop-color:#27AAE1;stop-opacity:0.7"/>
	</linearGradient>
	<rect class="st0" width="792" height="1224"/>
	<path class="st1" d="M0,1224v-148.3V1224z"/>
	<path class="st1" d="M658.1,841.5c41.4-7.9,85-8.2,126.6-0.8"/>
	<path class="st2" d="M-14.8,74c-5.3-0.1-11.5-3.9-10.6-9.1c1.3-6.7,10.8-5.8,17.6-6.4c14.6-1.2,24.3-16.1,38.2-20.4
		c8.3-2.6,17.5-1.2,25.8-4c9-3,15.6-10.6,23.9-15.2c18.7-10.4,42.2-4.1,61.4,5.2s37.9,21.7,59.3,23.4c15.6,1.2,35.1-1.9,43.7,11.2
		c-7.6,6.8-18.7,7.5-28.9,7.9C139.3,69.1,61.5,76.2-14.8,74z"/>
	<path class="st1" d="M565.3,848.3c-5.3,0.5-10.5,0.9-15.8,1.4c-21.1,1.9-42.4,3.8-63.5,2.1"/>
	<path class="st1" d="M169.3,849.4c25.9,2.3,51.8,3.9,77.7,4.7"/>
	<path class="st1" d="M72,860.3c12.4,1.7,25.1-1.3,37.5,0.8"/>
	<linearGradient id="SVGID_2_" gradientUnits="userSpaceOnUse" x1="254.8376" y1="847.8477" x2="254.8376" y2="847.8477">
		<stop  offset="0" style="stop-color:#D7DF23;stop-opacity:0.7"/>
		<stop  offset="1" style="stop-color:#27AAE1;stop-opacity:0.7"/>
	</linearGradient>
	<path class="st3" d="M254.8,847.8"/>
</g>
<g id="sun">
	<path class="st4" d="M327,846.5c49.2-0.2,86.8-2.6,160.2-7.5c52.1-3.5,107.4-7.1,145.9-9.7c-29.9-101.7-131.5-177.4-237-176.6
		c-18.8,0.2-37.5,2.7-55.7,7.5c-18.3,4.8-35.9,11.7-52.6,20.5c-16.8,8.8-32.5,19.5-47,31.7c-14.5,12.2-27.6,26-39,41.2
		c-11.4,15.1-21.1,31.5-28.7,48.8c-5.5,12.4-11,25.9-12.2,39.5c26.3,1.5,61.5,3,103.2,3.9C274.3,846.1,300.2,846.6,327,846.5z"/>
	<path class="st5" d="M175,836.1"/>
	<path class="st4" d="M147.1,819.9"/>
	<path class="st4" d="M304.3,933.3"/>
</g>
<g id="water">
	<path class="st1" d="M0.5,840.1c75.1-1.6,126.5,0,160.3,1.9c9.4,0.5,32.4,1.9,64.4,3c31.5,1.1,58.2,1.4,78.1,1.5
		c10.9,0,21.6,0.1,36.3-0.1c35.2-0.5,62.3-1.9,77.2-2.8c17.5-1,35.6-2.2,50.2-3.2c8.8-0.6,15.2-1.1,20.2-1.4
		c86.5-6,129.7-9,145.9-9.7c37.1-1.6,91.1-2.3,160.9,4.1"/>
	<path class="st1" d="M83.3,853.7c35.2,0.8,70.6,1.6,105.6,5.9"/>
</g>
<g id="plants_1_">
	<path class="st6" d="M710.3,984.1c-6.1-35.6-3.5-72.4,3.5-107.8c8.7,44.5,17.3,89,29.9,132.5c4.4,15.3,9.4,30.5,12.5,46.1
		c0.8,4.1,5.5,18,0.3,20.4c-5.1,2.3-10.9-8.3-13.4-11.8C725.9,1040.2,715.2,1012.5,710.3,984.1z"/>
	<path class="st1" d="M714.5,903.5c-0.9,29.6,4.5,59.1,11.5,87.9c7.1,29.1,16,58.1,31,84.2"/>
	<path class="st6" d="M800.6,990c6.1-35.6,3.5-72.4-3.5-107.8c-8.7,44.5-17.3,89-29.9,132.5c-4.4,15.3-9.4,30.5-12.5,46.1
		c-0.8,4.1-5.5,18-0.3,20.4c5.1,2.3,10.9-8.3,13.4-11.8C785,1046.2,795.7,1018.4,800.6,990z"/>
	<path class="st1" d="M796.4,909.4c0.9,29.6-4.5,59.1-11.5,87.9c-7.1,29.1-16,58.1-31,84.2"/>
</g>
<g id="trees">
	<path class="st7" d="M114.7,456.6c8.9-30.7,29.2-50.2,36.6-56c18-14,39.2-23.2,60.5-31.3c-6.2,3.2-12.4,6.4-18.6,9.6
		c5.9-3,12.9-4,19.4-2.7c-8.2,0.4-16.3,1.9-24.1,4.4c5.7-0.4,11.5,1,16.5,3.8c-6.6-3.6-14.8-3.9-21.6-0.9c6.8,0.4,13.4,3.4,18.2,8.3
		c-7.2-5.2-16.8-6.9-25.3-4.5c8.1-0.6,16.3,2.8,21.7,8.8c-7.3-5-16.7-6.9-25.4-5c6.1,1.8,11.7,5.1,16.3,9.5
		c-10.3-3.6-22.3-2.1-31.5,3.8c8.4-2.6,17.6-2.5,25.9,0.5c-11.3-1.5-23.1,0.7-33.1,6.2c10-3.4,21.1-3.7,31.3-0.8
		c-12.4-0.3-24.9,2.4-36.1,7.7c8.9-1.3,18.3-2.5,26.7,0.6c-12,1.1-23.8,4.4-34.7,9.6c7.6-1.6,15.3-2.8,23-2.5
		c-9.9,1.7-19.5,5-28.3,9.7c7-4.2,15.4-6,23.5-5.2c-9.3,2.5-18.2,6.1-26.6,10.9c6.2-1.8,12.6-3.1,19-3.8
		c-7.1,2.7-13.5,7.2-18.7,12.8c4.1-1.5,8.5-2.4,12.8-2.8c-6.5,2.6-12.4,6.6-17.1,11.8c4.1-1.9,8.3-3.9,12.4-5.8
		c-5.9,3.5-11.4,7.7-16.3,12.5c4.7-2.1,9.4-4.1,14-6.2c-5,4.5-9,10.1-11.8,16.2c2.3-3.1,5.4-5.7,8.9-7.4c-5.9,9.6-15.2,23.6-19.4,22
		C108.3,488.7,110.9,469.9,114.7,456.6z"/>
	<path class="st8" d="M118.5,492c-1.2-4.2-6.5-11.3-10.7-10.5c-63.5,187.8-92.8,387.1-86,585.2c12.2,0,23.5,0,35.8,0
		C38.3,875.1,62.9,676.3,118.5,492z"/>
	<path class="st9" d="M-25.9,625.3c0,0.3,0,0.6,0,0.9"/>
	<path class="st1" d="M21.6,1003.7c-0.8,6.4,0.3,13.1,3,19c1-6.7,2-13.4,3-20.1c0.2,8.5,0.4,17,0.7,25.5c0.8-8.7,2.2-17.4,4.2-26
		c0,8.8,0.9,17.6,2.9,26.2c2.4-11.2,4-22.7,4.7-34.1c1,12.5,1.9,25.1,2.9,37.6c1.9-11.2,2.6-22.5,2.1-33.8
		c3.7,9.4,6.1,19.3,7.2,29.4c0.3-10.1-0.4-20.2-2.2-30.1"/>
	<path class="st1" d="M21.9,946.9c-0.8,6.4,0.3,13.1,2.9,19c1-6.7,1.9-13.4,2.9-20.1c0.2,8.5,0.4,17,0.6,25.5c0.7-8.7,2.1-17.4,4-26
		c0,8.8,0.9,17.6,2.7,26.2c2.3-11.2,3.8-22.7,4.5-34.1c0.9,12.5,1.8,25.1,2.8,37.6c1.8-11.2,2.5-22.5,2-33.8
		c3.5,9.4,5.8,19.3,6.9,29.4c0.3-10.1-0.4-20.2-2.1-30.1"/>
	<path class="st1" d="M26.6,893c1.6,8.5,3.6,16.9,5.9,25.2c0-10.5,0-20.9,0-31.4c1.6,10.2,3.2,20.3,4.8,30.5
		c1.4-8.6,2-17.4,1.9-26.2c2.1,7,3.6,14.2,4.3,21.4c0.3-7.6,1.8-15.1,4.5-22.2c0.1,5.9,0.2,11.8,0.3,17.7c1.8-5.5,2.7-11.3,2.7-17"
		/>
	<path class="st1" d="M29.2,844.4c1.6,8.5,3.5,16.9,5.8,25.2c0-10.5,0-20.9,0-31.4c1.6,10.2,3.2,20.3,4.8,30.5
		c1.3-8.6,2-17.4,1.9-26.2c2.1,7,3.6,14.2,4.3,21.4c0.2-7.6,1.8-15.1,4.4-22.2c0.1,5.9,0.2,11.8,0.3,17.7c1.7-5.5,2.6-11.3,2.6-17"
		/>
	<path class="st1" d="M45.9,722.8c0,7.9,0,15.9,0,23.8c1.8-6.7,3.6-13.5,5.4-20.2c0,7.7,0,15.5-0.1,23.2c0.5-7.6,1.9-15.2,4.2-22.5
		c0.1,5.8,0.1,11.6,0.2,17.4c1.7-4.9,3.5-9.9,5.2-14.8c0,3.6,0,7.3,0,10.9c0.8-2.3,1.7-4.6,2.5-6.9c0.6,1.1,1.1,2.3,1.2,3.5"/>
	<path class="st1" d="M37.1,779.5c0,6.4,0.1,12.8,0.1,19.2c2.2-6.7,4.2-13.5,5.8-20.4c0.2,11.3,0.1,22.6-0.1,33.9
		c2.5-9.7,4.9-19.4,7.4-29.1c0,6.5,0,12.9,0,19.4c0.8-4.9,1.6-9.7,2.4-14.6c0.8,3.9,1.5,7.8,2.3,11.7c0.7-3.6,1.7-7.2,2.9-10.7"/>
	<path class="st1" d="M53.6,682.7c0.1,4.8,0.2,9.7,0.3,14.5c2.5-5.8,4.5-11.8,5.9-18c-0.2,9.1-0.5,18.2-0.7,27.3
		c2.2-7.7,4.4-15.4,6.6-23.1c0,5.5,0,11,0,16.4c0.6-3.7,2-7.3,3.9-10.6c0.3,2.6,0.6,5.2,0.8,7.8"/>
	<path class="st1" d="M63,643.1c0,8.1-0.1,16.3-0.1,24.4c1.4-9.2,3.1-18.3,5.2-27.4c0.3,5.5,0.4,11,0.1,16.6
		c1.9-4.2,3.9-8.2,6.1-12.2c-0.1,4.7-0.1,9.4,0.2,14c1.2-3.3,2.5-6.6,3.9-9.8c0,1.3,0,2.7,0,4"/>
	<path class="st1" d="M71.5,606.5c-0.3,4.5-0.6,9.1-0.8,13.6c2-5.9,3.9-11.8,5.9-17.7c-0.8,9-1.6,18-2.4,27.1
		c1.9-8.1,4.1-16.1,6.5-24c0,6.3,0.1,12.6,0.1,18.9c1.4-5.6,3.5-10.9,6.3-15.9c0.3,2.7,0.1,5.5-0.4,8.2"/>
	<path class="st1" d="M81,569.4c0,5.1,0,10.3,0,15.4c2.8-5.4,5.6-10.8,8.4-16.2c-0.8,5.2-1.2,10.5-1.3,15.8c0.8-5.2,2.5-10.3,5-14.9
		c0.1,4.3-0.2,8.6-0.8,12.8c1.2-2.5,2.5-5.1,3.7-7.6"/>
	<path class="st1" d="M91.7,532.2c-0.7,4.7-1.5,9.5-2.2,14.2c2.9-4.6,5.3-9.6,7.2-14.7c-1,6.7-2.1,13.3-3.1,20
		c2.7-7.1,5.3-14.2,8-21.3c-0.2,4.3-0.6,8.6-1.2,12.9c0.7-2.9,1.9-5.6,3.6-8.1c0.1,1.8,0.1,3.5,0.2,5.3"/>
	<path class="st1" d="M101.1,501c0,3.1,0,6.3,0,9.4c2.9-5.4,5.2-11.1,6.9-16.9c0.7,6.2,0.6,12.5-0.3,18.7c1.3-5.3,3.5-10.3,6.5-14.8
		c0.1,3.8-0.5,7.6-1.8,11.1c0.3-0.7,0.5-1.3,0.8-2"/>
	<path class="st8" d="M643.2,523.3c1.2-4.2,6.6-11.4,10.9-10.6c64.2,189.9,93.8,391.4,87,591.7c-12.4,0-23.8,0-36.2,0
		C724.3,910.7,699.5,709.7,643.2,523.3z"/>
	<path class="st1" d="M741.2,1040.8c0.8,6.5-0.3,13.3-3.1,19.2c-1-6.8-2.1-13.6-3.1-20.3c-0.2,8.6-0.4,17.2-0.7,25.7
		c-0.8-8.8-2.2-17.6-4.2-26.3c0,8.9-1,17.8-2.9,26.5c-2.4-11.4-4-22.9-4.8-34.5c-1,12.7-2,25.3-2.9,38c-1.9-11.3-2.7-22.8-2.2-34.2
		c-3.7,9.5-6.2,19.5-7.3,29.7c-0.3-10.2,0.4-20.4,2.2-30.5"/>
	<path class="st1" d="M740.8,983.4c0.8,6.5-0.3,13.3-2.9,19.2c-1-6.8-2-13.6-2.9-20.3c-0.2,8.6-0.4,17.2-0.6,25.7
		c-0.8-8.8-2.1-17.6-4-26.3c0,8.9-0.9,17.8-2.8,26.5c-2.3-11.4-3.8-22.9-4.6-34.5c-0.9,12.7-1.9,25.3-2.8,38
		c-1.9-11.3-2.5-22.8-2.1-34.2c-3.5,9.5-5.9,19.5-7,29.7c-0.3-10.2,0.4-20.4,2.1-30.5"/>
	<path class="st1" d="M736.1,928.8c-1.6,8.6-3.6,17.1-5.9,25.4c0-10.6,0-21.1,0-31.7c-1.6,10.3-3.3,20.5-4.9,30.8
		c-1.4-8.7-2-17.6-1.9-26.5c-2.2,7-3.6,14.3-4.4,21.7c-0.3-7.7-1.8-15.3-4.5-22.4c-0.1,6-0.2,11.9-0.3,17.9
		c-1.8-5.5-2.7-11.4-2.7-17.2"/>
	<path class="st1" d="M733.5,879.7c-1.6,8.6-3.5,17.1-5.9,25.4c0-10.6,0-21.1,0-31.7c-1.6,10.3-3.2,20.5-4.8,30.8
		c-1.4-8.7-2-17.6-1.9-26.5c-2.1,7-3.6,14.3-4.3,21.7c-0.3-7.7-1.8-15.3-4.5-22.4c-0.1,6-0.2,11.9-0.3,17.9
		c-1.8-5.5-2.7-11.4-2.7-17.2"/>
	<path class="st1" d="M716.6,756.8c0,8,0,16,0,24.1c-1.8-6.8-3.7-13.6-5.5-20.4c0,7.8,0,15.6,0.1,23.4c-0.5-7.7-2-15.4-4.3-22.7
		c-0.1,5.9-0.1,11.7-0.2,17.6c-1.8-5-3.5-10-5.3-15c0,3.7,0,7.4,0,11c-0.9-2.3-1.7-4.7-2.6-7c-0.7,1.1-1.1,2.3-1.2,3.6"/>
	<path class="st1" d="M725.5,814.1c0,6.5-0.1,13-0.1,19.5c-2.3-6.8-4.2-13.7-5.9-20.6c-0.2,11.4-0.1,22.9,0.1,34.3
		c-2.5-9.8-5-19.6-7.4-29.4c0,6.5,0,13.1,0,19.6c-0.8-4.9-1.6-9.8-2.5-14.7c-0.8,3.9-1.5,7.9-2.3,11.8c-0.7-3.7-1.7-7.3-2.9-10.8"/>
	<path class="st1" d="M708.8,716.2c-0.1,4.9-0.2,9.8-0.3,14.6c-2.6-5.8-4.6-11.9-5.9-18.2c0.2,9.2,0.5,18.4,0.7,27.6
		c-2.2-7.8-4.5-15.5-6.7-23.3c0,5.5,0,11.1,0,16.6c-0.6-3.8-2-7.4-3.9-10.7c-0.3,2.6-0.6,5.3-0.9,7.9"/>
	<path class="st1" d="M699.3,676.2c0,8.2,0.1,16.4,0.1,24.7c-1.4-9.3-3.2-18.5-5.3-27.7c-0.3,5.6-0.4,11.2-0.1,16.7
		c-1.9-4.2-4-8.3-6.2-12.4c0.1,4.7,0.1,9.5-0.2,14.2c-1.2-3.3-2.5-6.6-4-9.9c0,1.3,0,2.7,0,4"/>
	<path class="st1" d="M690.8,639.2c0.3,4.6,0.6,9.2,0.8,13.8c-2-6-4-11.9-6-17.9c0.8,9.1,1.6,18.2,2.5,27.4
		c-2-8.2-4.2-16.3-6.6-24.3c0,6.4-0.1,12.7-0.1,19.1c-1.4-5.6-3.5-11-6.3-16c-0.3,2.8-0.1,5.6,0.4,8.3"/>
	<path class="st1" d="M681.1,601.6c0,5.2,0,10.4,0,15.6c-2.8-5.4-5.7-10.9-8.5-16.3c0.8,5.3,1.2,10.6,1.3,16
		c-0.8-5.3-2.5-10.4-5-15.1c-0.1,4.3,0.2,8.7,0.8,13c-1.3-2.6-2.5-5.1-3.8-7.7"/>
	<path class="st1" d="M670.3,564c0.7,4.8,1.5,9.6,2.2,14.3c-2.9-4.7-5.4-9.7-7.3-14.9c1.1,6.7,2.1,13.5,3.2,20.2
		c-2.7-7.2-5.4-14.3-8.1-21.5c0.2,4.4,0.6,8.7,1.2,13.1c-0.7-2.9-2-5.7-3.6-8.2c-0.1,1.8-0.1,3.6-0.2,5.4"/>
	<path class="st1" d="M660.8,532.5c0,3.2,0,6.3,0,9.5c-2.9-5.4-5.3-11.2-7-17.1c-0.7,6.3-0.6,12.6,0.3,18.9
		c-1.3-5.3-3.6-10.4-6.6-15c-0.1,3.8,0.5,7.7,1.8,11.2c-0.3-0.7-0.5-1.4-0.8-2"/>
	<path class="st7" d="M763.1,420.1c-24.6,8.6-49,18.8-70,34.3c-21,15.5-38.5,36.8-45.3,61.9c6.2-9.2,15.8-15.2,26.9-16.6
		c-4.7-1.6-10.1-1.2-14.5,1.1c7.7-6.1,17-10.2,26.7-11.8c-7.7,0.2-15.4,1.8-22.6,4.6c9-5.8,19.6-9.2,30.2-9.8
		c-6.6-0.5-13.2-0.2-19.7,1c10.9-3.4,22.2-5.5,33.5-6.2c-7.3-1.8-14.9-2.2-22.4-1.2c10.9-4,22.6-5.7,34.2-5c-7.8-2-15.9-2.7-24-2.3
		c11.4-4.3,23.9-5.9,36-4.5c-7.4-3.5-16-4.6-24-3.1c11.3-1.4,22.9-0.6,33.9,2.3c-6.9-4.9-15.1-8-23.5-9c10.9-0.2,21.9,2.1,31.7,6.8
		c-5.3-5.9-12.8-9.9-20.7-11c8.6-1.5,17.4-1.8,26-0.9c-6.6-2.4-13.5-3.9-20.5-4.5c6.9-4.4,15-6.8,23.2-7.1
		c-5.3-0.6-10.6-1.2-15.9-1.9C749.5,431.6,755.9,425.9,763.1,420.1z"/>
	<path class="st7" d="M631.3,483.8c-24.3-27.5-54.9-37.7-65.4-40c-25.5-5.7-52-4.8-78.1-2.7c8,0.3,16,0.6,24,0.9
		c-7.6-0.2-15.3,2.2-21.4,6.7c8.7-3.6,17.8-6.1,27.1-7.3c-6.1,2.4-11.5,6.6-15.2,12c5-6.9,13.4-11.3,21.9-11.6
		c-6.9,3.8-12.2,10.2-14.8,17.6c4.9-8.9,14-15.4,24-17.1c-8.7,3.3-15.6,10.9-18.1,19.8c5.1-8.8,13.9-15.3,23.8-17.6
		c-5.4,4.9-9.6,11-12.2,17.8c9-8.8,22.1-13.2,34.5-11.5c-10,1.4-19.4,6.1-26.6,13.2c11-7.2,24.3-10.7,37.4-9.9
		c-12.1,1.4-23.6,6.5-32.8,14.5c12.7-6.4,26.9-9.8,41.2-9.8c-9.9,3.1-20.1,6.4-27.4,13.8c13-4.7,26.9-7.2,40.7-7.1
		c-8.6,2-17.2,4.6-25.1,8.8c11.1-3.1,22.6-4.4,34.1-3.9c-9.3-0.9-18.9,1.3-26.9,6.2c10.8-2,21.9-2.6,32.9-1.8
		c-7.3,1.1-14.5,3-21.5,5.4c8.7-0.6,17.5,0.8,25.6,4c-5,0.5-9.9,1.7-14.6,3.4c8-0.5,16.1,0.8,23.5,3.8c-5.2,0-10.5,0-15.7,0.1
		c7.8,0.7,15.6,2.4,23,5c-5.9,0.1-11.7,0.3-17.6,0.4c7.4,2.3,14.3,6,20.2,11c-3.9-2.1-8.4-3.3-12.8-3.3c10.8,7.1,27.3,17,30.9,13.2
		C653.7,513.8,641.8,495.6,631.3,483.8z"/>
	<path class="st7" d="M649.3,517.9c-24.4-7.9-51.1-7.7-75.9-1.3c-24.8,6.4-47.9,18.9-68.1,34.7c-11,8.6-21.4,18.3-29.5,29.6
		c-4.2,5.8-7.8,12-11.4,18.2c-7.1,12.3-14.2,24.6-21.4,36.8c6.9-9.1,12.8-18.3,18.2-28.3c-2.3,9.6-4.4,19.3-7.7,28.6
		c8-12.9,9.5-29,17.3-41.9c-4.9,12-7,25.1-6.2,38.1c-1-4.1,0.9-8.2,2.3-12.2c4.1-11.5,4-24.5,10.1-35.1c-2.2,11.9-2.6,24.5-0.4,36.4
		c0.7-15.2,1.5-31,8.8-44.4c-2.2,13.3-2.5,26.9-0.9,40.3c0.9-18.6,2-38.3,12.6-53.7c-4.3,14.6-6.5,29.7-6.5,44.9
		c1.1-18.1,7-35.9,16.9-51c-3.5,14-5,28.5-4.5,42.9c1.4-15.6,4.9-31,10.5-45.6c-1.9,12.5-2.2,25.2-0.7,37.7
		c0.7-17.5,6-34.8,15.8-49.4c-6.9,13.7-5.5,29.9-3.3,45.1c0.1-12.7,3.3-25.2,6.4-37.5c1.5-6,3.7-12.8,9.4-15.2
		c-4,5.2-4.8,12.1-5.1,18.6c-0.5,10.2,0.2,20.4,1.9,30.4c-0.2-9.7-0.3-19.5,2-28.9c2.3-9.4,7.2-18.6,15.3-23.9
		c-8.7,14.3-8.9,32-8.1,48.7c2.4-8.1,4.8-16.3,7.2-24.4c1.7-5.6,3.3-11.2,5.9-16.5c2.4-4.8,5.5-9.1,9.2-12.9
		c-4.5,13.7-5.4,28.5-2.8,42.7c-0.2-8.7,0.4-17.5,3.2-25.8c2.8-8.2,7.9-15.9,15.3-20.5c-5.9,13.8-8.6,29-7.9,44.1
		c1-8.4,2.7-16.8,5.1-25c2.2-7.7,5.5-15.7,12.2-20.2c-5.8,9.9-9,21.2-9.3,32.7c3.2-13.4,12.3-25.3,24.4-31.8
		c-3.4,7.6-5.9,15.5-7.4,23.7c2.4-6.5,5.1-13,9.2-18.5c4.1-5.6,9.9-10.2,16.6-11.7c-7.5,3.7-10.4,12.7-12.6,20.8
		c4.1-9.9,13-17.7,23.4-20.5c-5,4.3-8.1,10.8-8.3,17.4c0.8-4.3,3.9-8,7.6-10.5C641.8,521.1,645.1,519.3,649.3,517.9z"/>
	<path class="st7" d="M121.1,455.3c1.2-35.5-13.5-63.1-19.4-71.7c-14.1-21-33.4-38-53.2-53.9c5.4,5.5,10.9,11.1,16.3,16.6
		c-5.2-5.2-12.2-8.6-19.5-9.6c8.5,3.2,16.6,7.6,24,12.9c-5.9-2.4-12.5-3-18.7-1.7c8.2-1.5,17,0.9,23.2,6.5c-7.3-1.9-15.4-1-22.1,2.5
		c9.4-3,20.1-1.5,28.3,4c-8.3-3.4-18.2-2.7-26,1.9c9.4-2.8,20-1.5,28.5,3.5c-7-0.2-14.1,1.3-20.5,4.4c12.2-0.2,24.3,5.4,32,14.9
		c-8-5.7-17.8-8.7-27.5-8.4c12.5,2.3,24.2,8.7,32.9,17.9c-9.4-7-21-11.1-32.7-11.6c13.2,4,25.5,11.1,35.5,20.5
		c-9-4.4-18.4-8.9-28.4-8.5c12.3,5.3,23.7,12.9,33.4,22.1c-7.4-4.3-15.2-8.2-23.5-10.6c9.8,5.2,18.8,12,26.6,20
		c-6-6.8-14.2-11.7-23.1-13.5c9,5.8,17.2,12.7,24.4,20.6c-5.9-4.1-12.2-7.6-18.8-10.5c6.6,5.3,11.9,12.2,15.4,19.9
		c-3.9-3-8.1-5.4-12.6-7.4c6,5,10.8,11.3,14,18.3c-3.7-3.5-7.4-7-11.1-10.4c5,5.7,9.4,12.1,12.9,18.9c-4.2-3.8-8.5-7.6-12.7-11.4
		c3.7,6.5,6.1,13.8,6.9,21.2c-1.3-4.1-3.7-7.9-6.8-10.9c2.9,12.2,7.9,30.2,13,29.9C116.9,491.4,120.6,470.7,121.1,455.3z"/>
	<path class="st7" d="M112.1,492.8c13.5-26.6,35.7-48.4,61.4-63.6c25.7-15.2,54.9-23.9,84.5-27.6c16.2-2,32.6-2.6,48.7,0
		c8.2,1.3,16.3,3.5,24.3,5.6c16,4.2,31.9,8.5,47.9,12.7c-13.1-1.8-25.6-4.5-38.3-8.3c9.8,6,19.5,12.2,29.9,17.1
		c-17.2-4-31.6-16-48.8-20.2c13.9,5.8,26.5,14.9,36.4,26.2c-2.5-4.2-7.5-6-11.9-8.1c-12.8-6.1-23.5-16.9-37.2-20.6
		c11.6,8,22.3,18,30.2,29.6c-13.1-11.9-26.8-24.2-43.8-29.2c12.8,9.1,24.2,20.1,33.9,32.4c-16-14.6-33.2-29.8-54.5-33.8
		c15.5,8.4,29.8,19.1,42.3,31.5c-15.8-14-35.3-23.7-55.9-28c14.4,8.7,27.5,19.3,39,31.6c-13.9-11.7-29.5-21.4-46.2-28.8
		c11.8,8.7,22.5,18.9,31.6,30.4c-15-13.8-33.6-23.7-53.6-27.6c16.9,5.6,29.1,20.1,39.8,34.4c-10.5-10.4-23.4-18-36.2-25.5
		c-6.2-3.7-13.6-7.4-20.2-4.7c7.5,1,13.9,5.9,19.6,11.1c8.7,8,16.6,16.9,23.5,26.5c-7.9-8.1-15.8-16.3-25.4-22.2s-21.2-9.3-32.3-7
		c18.9,4.5,33.6,19,46.8,33.4c-8.7-4.7-17.3-9.4-26-14.1c-6-3.2-12-6.5-18.4-8.7c-5.9-2-12-3-18.2-3c15,7.6,28,19,37.4,32.8
		c-7-7.3-14.8-14.1-23.9-18.6c-9.1-4.5-19.6-6.5-29.5-4.3c16.3,6.5,31,16.7,42.8,29.7c-7.8-6.1-16.1-11.5-24.7-16.3
		c-8.2-4.5-17.5-8.4-26.6-6.6c12.9,3.3,24.9,10,34.5,19.2c-13.6-8.4-30.9-10.6-46.2-6.1c9,3.4,17.6,7.9,25.6,13.4
		c-7.3-3.3-14.8-6.5-22.8-7.6s-16.5-0.3-23.3,4.1c9.2-3.1,19,1.9,27.5,6.7c-11.6-4.7-25.3-3.8-36.1,2.4c7.7-0.6,15.6,2.2,21.2,7.5
		c-4.2-2.9-9.8-3.4-14.8-2.3C121,489.3,116.7,490.5,112.1,492.8z"/>
	<path class="st7" d="M603.2,623.2c1.1-20.8,3.4-41.8,10.6-61.4c7.2-19.6,19.6-37.8,37.4-48.7c-5.7,6.8-8.1,15.6-6.7,24.4
		c-2.3-3.3-3.2-7.5-2.4-11.4c-2.9,7.3-4,15.3-3.1,23.1c-1.6-6-2.1-12.2-1.6-18.4c-2.4,8.2-2.7,17.1-0.7,25.4
		c-1.9-4.9-3.1-10.1-3.6-15.4c-0.2,9.1,0.7,18.2,2.8,27.1c-3-5.2-5-11-5.9-16.9c-0.6,9.3,0.7,18.6,3.8,27.3
		c-3.3-5.6-5.7-11.6-7.2-17.9c-0.8,9.7,0.8,19.6,4.6,28.7c-4.4-4.9-7.1-11.2-7.8-17.7c1.5,9,4.7,17.7,9.4,25.5
		c-5.3-4.2-9.6-9.8-12.2-16.1c2.3,8.4,6.5,16.3,12.3,22.8c-5.7-2.8-10.4-7.6-13.1-13.4c0.7,6.9,2.5,13.7,5.2,20.2
		c-3.3-4.5-6-9.5-8-14.7c-1.8,6.3-1.9,13.1-0.2,19.4c-1.7-3.9-3.3-7.9-5-11.8C608.9,610.2,606,616.4,603.2,623.2z"/>
	<path class="st7" d="M684.6,508.1c37.3,2.7,64.4,21.1,72.9,28.2c20.4,17.1,36,39.2,50.4,61.6c-5.2-6.3-10.4-12.6-15.5-18.9
		c4.9,6.1,7.7,13.7,7.8,21.5c-2.4-9.2-6.1-18.2-10.8-26.5c1.8,6.4,1.7,13.4-0.3,19.8c2.5-8.4,0.9-17.9-4.2-24.9
		c1.2,7.9-0.7,16.2-5.1,22.8c4.2-9.5,3.8-20.9-1-30.1c2.7,9.1,0.8,19.3-4.8,26.9c4-9.6,3.8-20.8-0.5-30.2c-0.6,7.4-3,14.6-6.9,20.9
		c1.6-12.7-3-26-12-35.1c5,8.9,7.1,19.5,5.8,29.7c-1-13.3-6.4-26.3-15.1-36.4c6.3,10.6,9.3,23.2,8.5,35.5
		c-2.7-14.3-8.7-27.9-17.5-39.4c3.6,9.9,7.3,20.3,5.8,30.7c-4.2-13.5-10.8-26.2-19.4-37.4c3.7,8.3,6.9,16.8,8.4,25.7
		c-4.4-10.9-10.5-21-18-30c6.5,7,10.6,16.1,11.6,25.6c-5.1-10-11.4-19.4-18.9-27.8c3.6,6.6,6.6,13.6,8.9,20.8
		c-4.9-7.4-11.5-13.7-19.1-18.3c2.7,4.4,4.8,9.1,6.3,14c-4.5-6.8-10.6-12.5-17.6-16.7c3.2,4.3,6.5,8.5,9.7,12.8
		c-5.4-5.9-11.6-11.1-18.3-15.6c3.5,4.8,7,9.7,10.5,14.5c-6.4-4.6-13.7-7.9-21.4-9.6c4.1,1.9,7.8,4.7,10.6,8.3
		c-12.4-4.4-30.7-11.6-29.8-16.9C646.4,508.5,668.5,506.9,684.6,508.1z"/>
	<path class="st7" d="M-11.4,575.9C3,554.3,18.9,533.3,39,516.8c20.1-16.4,45.1-28,71-28.4c-10.4,3.7-18.6,11.5-22.7,21.8
		c-0.4-5,1.3-10.1,4.7-13.8c-7.8,5.9-14,13.9-18,22.8c2.1-7.4,5.5-14.4,10-20.7c-7.8,7.3-13.7,16.6-16.9,26.8
		c1.1-6.5,3.1-12.8,5.9-18.8c-6,9.6-10.8,20-14.3,30.9c0.1-7.5,1.6-14.9,4.4-21.9c-6.5,9.5-11.1,20.4-13.3,31.8
		c0.1-8,1.3-16.1,3.7-23.7c-7,9.9-11.6,21.6-13.3,33.6c-1.6-8-0.5-16.6,3-24c-4.2,10.6-6.3,21.9-6.2,33.3c-3-7.9-4-16.6-2.8-24.9
		c-2.9,10.5-3.4,21.6-1.3,32.3c-4.4-6.6-6.4-14.8-5.5-22.7c-3.6,7.9-6.1,16.3-7.3,24.9c-0.7-7-0.4-14,0.8-20.9
		c-5.9,5.6-10.3,12.8-12.6,20.6c0.7-5.3,1.4-10.6,2.2-15.9C3,565.6-4,570.4-11.4,575.9z"/>
	<path class="st7" d="M111.8,488.7c24.8-1.2,49.7,5.8,71.3,18.2s39.9,29.9,54.8,49.8c8.1,10.9,15.3,22.5,20.1,35.2
		c2.4,6.5,4.2,13.2,6,19.9c3.5,13.3,7.1,26.6,10.6,39.9c-4.1-10.2-7.3-20.4-9.8-31.1c-0.3,9.6-0.8,19.1-0.1,28.7
		c-4.2-14.1-1.4-29.5-5.5-43.6c1.5,12.5,0.1,25.3-4,37.2c2-3.6,1.2-7.9,0.9-12c-0.9-11.8,2.6-24-0.5-35.4c-1,11.7-3.8,23.6-9,34.1
		c3.2-14.4,6.5-29.4,3.1-43.8c-1.3,13-4.6,25.8-9.5,37.9c4-17.6,7.9-36.3,1.9-53.4c0.3,14.7-1.5,29.5-5.4,43.7
		c3.6-17.2,2.6-35.3-2.8-52c-0.3,14-2.6,27.9-6.8,41.3c2.7-14.9,3.3-30.2,1.8-45.3c-1.4,12.1-4.4,24.1-9,35.4
		c3.8-16.6,3.3-34.1-2.1-50.2c3,14.6-2.5,29.4-8.4,43c3.2-11.9,3.4-24.4,3.5-36.7c0.1-6-0.2-12.9-4.9-16.6c2.4,5.9,1.4,12.5,0,18.7
		c-2.2,9.6-5.4,19-9.5,27.9c2.6-9,5.3-18.2,5.5-27.6c0.3-9.4-2-19.2-8.2-26.3c4.5,15.6,0.1,32.2-4.9,47.6
		c-0.2-8.2-0.3-16.4-0.5-24.7c-0.1-5.7-0.2-11.4-1.3-16.9c-1-5.1-2.8-10-5.3-14.5c0.7,14-2.2,28.1-8.3,40.7
		c2.4-8.1,4.1-16.5,3.6-24.9c-0.5-8.4-3.4-16.9-9.1-23.1c2,14.5,0.7,29.4-3.9,43.2c1.2-8.1,1.7-16.4,1.6-24.6
		c-0.1-7.8-1.1-16.1-6.2-22c2.9,10.7,3,22.2,0.4,32.9c0.4-13.3-5-26.7-14.7-36c1.2,7.9,1.5,16,0.8,24c-0.6-6.7-1.5-13.4-3.9-19.7
		c-2.4-6.3-6.6-12-12.5-15.2c6.1,5.4,6.5,14.6,6.5,22.7c-1.3-10.3-7.7-19.9-16.6-25.2c3.6,5.3,4.8,12.2,3.3,18.4
		c0.4-4.3-1.6-8.5-4.4-11.7S115.4,491.1,111.8,488.7z"/>
	<path class="st1" d="M695.6,848.5c-57.2,7-114.7,12.1-172.3,15.3"/>
	<path class="st1" d="M648.6,835.1c-30.3,2.2-60.6,4.5-90.9,6.7"/>
</g>
<g id="ground_1_">
	<path class="st10" d="M793.2,1076.8v148.3H1.2v-148.3c68.4,0,135.7,2.9,204,4.8c36.2,1,72.2,7.3,108.4,6.6
		c27.3-0.5,54.3-5.1,81.5-7.4c99.8-8.5,200.6,13.1,300,1.8C728.1,1078.9,760.7,1070.6,793.2,1076.8z"/>
</g>
<g id="grass">
	<path class="st11" d="M26.9,1120.3c2.6-6.3,7.3-11.4,11.1-17.1c9.8-14.7,13.3-33.2,24.9-46.5c6.2-7.2,14.5-12.5,20.4-19.9
		c10.1-12.7,12.1-29.9,13.7-46.1c0.8,9.2,1.5,18.4,2.3,27.7c0.4,5.4,0.9,11-1.1,16c-3.2,8.4-12,13.3-17.1,20.8
		c-4.6,6.8-5.8,15.2-7.6,23.2c-4.5,19.7-13.4,38.3-25.8,54.1c-2.8,3.6-14.5,20.5-20.1,17.9C21.1,1147.3,24.9,1125.2,26.9,1120.3z"/>
	<path class="st11" d="M56.8,1106.5c4.4-6.2,10.3-11.6,12.7-18.9c2.6-7.7,1-16.2,2.9-24.1c2.4-10,10.1-17.6,16.8-25.4
		c9.8-11.3,18-24,24.5-37.5c-8.2,17.7-8,38.1-12.8,57c-1.9,7.7-4.7,15.2-7.5,22.7c-8.1,21.8-16.2,43.7-26.1,64.7
		c-2,4.2-6,14-11.1,15.3c-6.2,1.6-7.4-8.4-8.3-13.7C45.5,1132.8,48.6,1118,56.8,1106.5z"/>
	<path class="st6" d="M629.5,1224.8c-18.6-22.8-31.4-50.4-36.2-79.4c1.1,10.4,0.3,21.1-2.4,31.2c-5.2,0.8-9-4.9-11.1-9.7
		c-5.5-12.7-10-25.7-13.5-39.1c2.2,16,4.4,32.3,2.5,48.4c-9.6-4.7-14.1-15.7-17.8-25.8c-3-8.3-6-16.6-9-24.9
		c2.5,10.5,4,21.3,4.3,32.2c0.3,8.1-0.3,16.9-5.3,23.3c-12.5-20.5-16.7-44.9-19-68.8c2.9,20,4.2,40.3,3.8,60.6
		c-0.1,3.1-0.2,6.4-2,8.9c-2.8-1.3-4.1-4.4-5.1-7.3c-4.1-12.4-7.1-25.2-8.8-38.1c2.9,14.3,3.2,29,1.1,43.4c-2,0.9-3.7-1.8-4.3-3.9
		c-5.7-20.1-8.3-41.1-7.7-62c1.3,20.8,1.5,41.7,0.6,62.5c-4.1,0.3-6.3-4.7-7.2-8.7c-2.5-11.2-4.3-22.4-5.6-33.8
		c-0.1,12.4-0.7,24.8-1.7,37.1c-0.3,3.9-0.8,8-3.2,11.1c-0.9,1.1-2.2,2.1-3.7,1.9c-1.4-0.2-2.4-1.4-3.1-2.5
		c-3.4-5.6-3.5-12.6-3.4-19.2c0.1-16.8,0.2-33.6,0.3-50.5c-3.3,20.6-7.3,41.1-11.9,61.5c-0.4,2-0.9,4-2.1,5.6
		c-1.2,1.6-3.4,2.7-5.3,2c-1.5-0.5-2.5-2-3.3-3.4c-5.4-9.7-7.9-22.5-6.8-33.5c-0.4,8.6-1.9,17.2-4.3,25.5c-0.8,3-2.9,6.5-5.9,5.8
		c-1.5-15.7-2-31.6-1.5-47.4c-2.2,16.5-4.4,33.2-11.4,48.3c-0.9,1.8-2.1,3.9-4.2,4c-3.4,0.2-4.3-4.5-4-7.9
		c1.6-18.9,3.2-37.7,4.7-56.6c-2.1,20.7-6.4,41.2-12.7,61.1c-0.3,1-0.7,2.1-1.6,2.7c-1.4,0.9-3.4,0.1-4.3-1.3
		c-0.9-1.4-1-3.2-1.1-4.8c-0.6-9.9-1.1-19.9-1.7-29.8c-1.2,11.4-2.5,22.8-6.3,33.6c-0.9,2.5-3,5.5-5.5,4.5c-1.8-0.7-2.2-3.1-2.3-5.1
		c-0.6-20.2,2.6-40.3,5.8-60.2c-5.5,20.9-11,41.9-16.5,62.8c-0.5,1.8-1.4,4-3.2,4.1c-2.5,0.1-3.2-3.3-3.1-5.8
		c1.2-20.1,2.5-40.1,3.7-60.2c-2.6,21-6.9,41.9-12.6,62.3c-0.5,1.8-1,3.6-2.3,4.9c-1.3,1.3-3.5,1.9-5,0.9
		c-1.1-12.9-1.6-25.8-1.4-38.7c-2.2,12.4-4.5,24.7-8.1,36.8c-0.3,0.9-0.6,2-1.5,2.5c-1.3,0.8-3.1,0-3.9-1.3s-0.8-2.9-0.9-4.4
		c-0.2-19.7,1.4-39.4,4.6-58.8c-3.4,19.4-7.9,38.6-13.4,57.5c-1,3.6-2.2,7.2-4.4,10.2c-0.4,0.5-0.9,1.1-1.5,1.2
		c-1,0.1-1.7-0.9-2.1-1.8c-2.2-4.6-1.9-9.9-1.5-15c0.8-8.8,2.3-17.5,4.4-26c-3.5,14.2-9.3,27.3-16.2,40.3c-1.5-5.6-0.7-11.6,0-17.4
		c1.9-15.1,3.7-30.1,5.6-45.2c-2.4,18.6-6.6,36.9-12.5,54.7c-0.9,2.7-1.9,5.5-3.8,7.6c-1.9,2.1-5.1,3.3-7.7,2.2
		c0-8.7,0.1-17.3,0.1-26c0.1-15.7,0.2-31.9,6.1-46.5c-8,23.8-15.3,47.8-21.9,72c-5-0.3-6.4-7-6.2-12c0.5-18.9,2.3-37.7,5.4-56.4
		c-2.7,14.8-5.7,29.6-9.1,44.3c-2.3,10.2-5,20.9-11.8,28.8c-6.3-21.1,1.4-43.5,1.8-65.5c-3.6,22.8-11.9,44.5-24.7,63.6
		c0.1-26.2,0.4-53.1,10.1-77.3c-6.2,22.3-12.5,44.7-18.7,67c-1,3.7-3.8,8.3-7.4,6.9c-0.9-23.7,3.6-47.5,13.1-69.2
		c-4.7,12.8-10.8,25.1-16.8,37.4c-3.5,7.1-7,14.3-10.5,21.4c-2.9,5.8-5.8,11.7-9.7,16.9c2.1-19.8,8.7-38.7,15.2-57.5
		c-4.9,18.8-13.3,36.6-24.6,52.4c-2.5,3.5-4.3,6.9-7.3,9.9c-0.4,0.4-0.4,0.8-0.8,1.2c5-19.8,10-39.7,15-59.5
		c-2,22.2-14.9,42-28.8,59.4c0.1-9.4,3.1-18.4,6-27.3c3.6-11,7.2-22,10.9-33c-8.4,21.9-17,44.1-30.1,63.6
		c8.1-17.7,14.3-36.3,18.6-55.3c-8.7,23.4-17.8,47.3-34.3,66c6.5-16.2,13.1-32.4,19.6-48.6c-8.4,17.2-17.8,33.8-28.1,49.9
		c3.3-13.1,6.6-26.2,9.9-39.2c-10.5,13.4-21.1,26.7-31.6,40.1c1.8-10.1,6.2-19.7,12.9-27.5c-9.1,9.3-18.2,18.7-27.3,28
		c0.9-2.9,1.8-5.7,2.8-8.6c-5.5,2.6-10.2,6.8-13.3,12c143.9,16.6,290.3-0.9,435,5.6c14,0.6,27.9,1.5,41.9,2.7
		c14.5,1.2,29.5,2.7,43.3-2.1C600.5,1223.1,616.5,1226.9,629.5,1224.8z"/>
</g>
<g id="line">
	<line class="st12" x1="91.3" y1="95" x2="81.6" y2="1019.2"/>
	<line class="st12" x1="711.3" y1="95" x2="701.6" y2="1019.2"/>
	<line class="st12" x1="701.6" y1="1014.2" x2="77.2" y2="1014.3"/>
	<line class="st12" x1="714.9" y1="99.8" x2="90.5" y2="99.9"/>
</g>
<g id="Layer_12">
	<path class="st7" d="M111.6,495.2c-10.2-22.7-27.7-41.7-48.5-55.4s-44.8-22.1-69.3-26.3c-13.4-2.3-27-3.4-40.5-1.9
		c-6.9,0.8-13.7,2.2-20.5,3.7c-13.5,2.9-26.9,5.8-40.4,8.6c11-1,21.5-2.7,32.2-5.4c-8.4,4.6-16.7,9.3-25.5,13.1
		c14.5-2.6,27-12.1,41.4-14.8C-71.3,421-82.1,428-90.8,437c2.3-3.4,6.5-4.7,10.3-6.3c10.9-4.6,20.2-13.1,31.8-15.6
		c-10,6.2-19.3,14.1-26.4,23.4c11.4-9.4,23.3-19.1,37.6-22.6c-11,7.1-21,15.7-29.5,25.6c13.9-11.5,28.8-23.5,46.7-25.9
		c-13.3,6.4-25.6,14.7-36.5,24.6c13.7-11,30.3-18.4,47.7-21c-12.3,6.6-23.7,15-33.7,24.7c12.1-9.2,25.4-16.6,39.6-22.1
		c-10.2,6.7-19.5,14.8-27.5,24.1c13-10.9,28.9-18.4,45.7-20.8c-14.3,4-25.1,15.6-34.5,27c9.2-8.2,20.2-14.1,31.1-19.8
		c5.3-2.8,11.6-5.6,17-3.1c-6.3,0.5-11.8,4.4-16.7,8.4C4.3,443.9-2.6,451-8.8,458.7c6.9-6.4,13.8-12.9,22.1-17.4s18-6.9,27.1-4.6
		c-15.9,3-28.8,14.5-40.2,25.9c7.4-3.6,14.8-7.1,22.2-10.7c5.1-2.5,10.2-4.9,15.7-6.5c5-1.4,10.1-2,15.3-1.8
		c-12.7,5.7-24,14.7-32.5,25.8c6.1-5.8,12.9-11.1,20.6-14.5s16.6-4.7,24.7-2.4c-13.8,4.8-26.5,12.7-36.8,23
		c6.7-4.8,13.8-9,21.2-12.6c7-3.4,14.9-6.3,22.4-4.4c-10.9,2.3-21.1,7.3-29.5,14.6c11.7-6.4,26.1-7.6,38.7-3.2
		c-7.6,2.5-15,5.9-21.8,10.1c6.2-2.5,12.6-4.8,19.3-5.4s13.7,0.4,19.2,4.3c-7.6-3-15.9,0.8-23.1,4.5c9.8-3.5,21.2-2.2,30,3.4
		c-6.4-0.8-13,1.2-17.9,5.4c3.6-2.3,8.3-2.4,12.4-1.4S107.9,493.1,111.6,495.2z"/>
</g>
<g id="Layer_9">
	<path class="st11" d="M618,1229.4c-35.9-59.3-53.6-129.5-49.9-198.7c3.7,0.4,7.6-0.6,10.7-2.7c-1.8-5.1-6.4-9.1-11.7-10.1
		c4.2-1.5,6.1-6.5,5.8-10.9c-0.3-4.4-2.2-8.5-3.4-12.8c-3.2-11.2-1.4-23.1,0.3-34.6c6.2-0.3,12.4-0.6,18.6-0.9
		c-4.2-3.2-8.5-6.2-12.9-9.1c9.1-3.1,11.6-14.4,16.3-22.8c5.2-9.4,14.7-16.3,25.3-18.4c8,5.8,15.6,13.1,20.5,21.7
		c3.9,6.9,6.1,16.6,0.2,21.8c3.1-0.7,6.3,1.5,7.7,4.4c1.4,2.9,1.5,6.2,1.5,9.4c0.1,15.7,0.2,31.4,0.3,47.1
		c-4.3,0.4-8.5,1.9-12.2,4.2c5.4-1.9,11.5,1.9,14.3,6.9s2.9,11.1,3.1,16.8c1.1,37.4,3.3,74.7,6.6,112c0.5,5.9,1.1,12,3.6,17.4
		c1.9,4.1,5,7.8,6.1,12.2c1.1,4.4,0,9-1,13.3c-2.2,9.4-4.3,18.9-6.5,28.3c-0.3,1.2-0.6,2.4-1.5,3.3c-1.1,1-2.7,1-4.1,1
		C643.5,1228,630,1229.6,618,1229.4z"/>
	<path class="st11" d="M610.1,1033.4c2.1,66.3,16.9,131.2,21.4,197.4c1.8-0.1,3.6-0.1,5.3-0.2c-3.7,0.2-17.6-134.1-18.8-146.6
		c-4.6-48.1-3-95.3-5-143.3C610.5,971.3,609.1,1002.5,610.1,1033.4z"/>
	<path class="st1" d="M614.9,964.8c1.6,0.4,3.1-0.8,4.6-1.7c2.5-1.6,5.6-2.3,8.5-2.2"/>
	<path class="st1" d="M615.3,970.5c3.1-0.2,5.8-2,8.6-3.3c3.3-1.5,6.8-2.3,10.4-2.4"/>
	<path class="st1" d="M610.4,987.3c-7-2.1-14-3.8-21.1-5.2c-3.3-0.7-6.7-1.3-10.1-1.2"/>
	<path class="st1" d="M610,1011.7c-6.3-2-12.8-3.6-19.4-4.6"/>
	<path class="st1" d="M616.6,1039.2c3.4-0.2,6.3-2.5,9.2-4.3c5-3,10.8-4.7,16.6-4.9"/>
	<path class="st1" d="M616.6,1049.6c3.5-2,7-4,10.5-6.1"/>
	<path class="st1" d="M611.1,1063.3c-2.2-0.2-4.2-1.2-6.3-2.1c-8.3-3.8-17.3-6.6-26.4-5.6"/>
	<path class="st1" d="M612.5,1073.6c-7-1.5-13.7-5.3-20.9-4.8"/>
	<path class="st6" d="M63.6,960.1c4.7-13.2,11.7-25.4,18.6-37.6c-0.5,3.8-1.1,7.6-1.6,11.4c-3,20.6-6,41.4-13.9,60.6
		c-6,14.4-9.1-0.1-8.7-7.9C58.3,977.6,60.5,968.7,63.6,960.1z"/>
	<path class="st11" d="M22.8,1151.1c2.8-3.8,7.8-5.6,10.8-9.3c6.7-8.2,0.6-20.8,3.8-31c3.1-10.2,14.4-15.3,20.9-23.7
		c2.7-3.5,4.5-7.6,6.8-11.4c6-10.1,14.9-18.2,23.6-26.1c-19.4,25.6-12.9,63.3-29,91.1c-5.6,9.6-13.9,17.7-23.6,23.1
		c-4.8,2.7-8.4,5.5-12.6,1.4C19.8,1161.8,20,1154.8,22.8,1151.1z"/>
	<path class="st11" d="M17.7,1124c-0.1-4.1-0.2-8.2,1-12.1c3-10.5,13.7-16.7,19.6-25.9c5.3-8.3,6.3-18.6,10.7-27.4
		c3.5-7,9-12.9,14.4-18.6c8.2-8.7,16.4-17.4,24.5-26c-2.6,7.2-5.2,14.4-7.9,21.6c-2,5.6-4.1,11.2-7.5,16.1c-3.8,5.4-9,9.7-12.4,15.3
		c-7,11.8-4.3,27.4-10.7,39.6c-3.9,7.4-10.7,12.8-14.6,20.2c-3.2,6-4.2,12.9-6.2,19.4c-1.6,5.2-4.1,11.5-9,14.3
		C14.6,1155.1,17.8,1131.9,17.7,1124z"/>
	<path class="st6" d="M705.2,1056.2c-0.7-10.7-0.1-21.5-0.8-32.3c-1.1-17.6-5.6-34.9-10-52c5.6,24.1,20,45.3,26.5,69.1
		c3.2,11.7,4.4,23.8,5.4,35.9c0.3,3.7,0.6,7.5-0.2,11.1c-0.9,3.9-3.8,8.7-8.2,9.2c-4.7,0.5-4.7-2.6-5.7-6.2
		C708.9,1079.5,706,1068.3,705.2,1056.2z"/>
	<path class="st6" d="M663.4,1091.1c-7-26.4-3.5-54.3,0-81.4c0.6,18.6,3.1,37.2,9.3,54.7c2.9,8.1,6.6,15.9,8.9,24.2
		c1.7,6.1,2.7,12.4,3,18.7c0.2,4.9,1.9,15-4.7,11.8C670.9,1114.8,665.8,1100,663.4,1091.1z"/>
	<path class="st6" d="M676.8,1088c-7-20-3.5-41.1,0-61.6c0.6,14.1,3.1,28.2,9.3,41.4c2.9,6.1,6.6,12.1,8.9,18.3
		c1.7,4.6,2.7,9.4,3,14.2c0.2,3.7,1.9,11.3-4.7,8.9C684.2,1106,679.1,1094.8,676.8,1088z"/>
	<path class="st6" d="M791.7,1117.3c7-20,3.5-41.1,0-61.6c-0.6,14.1-3.1,28.2-9.3,41.4c-2.9,6.1-6.6,12.1-8.9,18.3
		c-1.7,4.6-2.7,9.4-3,14.2c-0.2,3.7-1.9,11.3,4.7,8.9C784.2,1135.2,789.3,1124,791.7,1117.3z"/>
</g>
<g id="plants">
	<path class="st11" d="M737.5,1220.1c15.8-19.7,31.6-39.5,50.5-55.7c18.9-16.1,41-28.6,66.2-32.1c-15.8,18.3-21.6,45.6-36.3,65
		c-5.9,7.8-13.2,14.2-20.8,20.1c-11.6,9-24.5,16.8-39.3,19.9c-6.6,1.4-15.2,2.7-22.4,0.4C723.9,1234.1,733,1225.8,737.5,1220.1z"/>
	<path class="st6" d="M771.2,1049.1c13.6-33.5,35.2-63.3,59.8-89.8c-16.1,42.3-32.2,84.7-44.4,128.3c-4.3,15.3-8.1,30.8-13.7,45.8
		c-1.5,4-4.8,18.2-10.5,17.5c-5.5-0.7-4.9-12.8-5.2-17.1C754.9,1105,760.4,1075.8,771.2,1049.1z"/>
	<path class="st1" d="M817.3,982.9c-16.4,24.7-27.3,52.6-36.5,80.7c-9.3,28.5-17,57.9-18.1,87.9"/>
	<path class="st11" d="M741.9,1146.5c0.4-15.1,0.7-30.3,3.4-45.1c2.7-14.9,7.8-29.5,16.8-41.6c-0.8,14.5,5.2,28.6,5.1,43.2
		c0,5.9-1,11.7-2.3,17.4c-1.9,8.7-4.7,17.5-9.7,25.1c-2.2,3.4-5.3,7.5-8.9,9.6C740.7,1158.2,741.8,1150.8,741.9,1146.5z"/>
	<path class="st1" d="M757.4,1079.1c-4.2,12.4-3.4,25.8-4.7,38.8c-1.3,12.9-4.6,25.6-8.3,38"/>
	<path class="st11" d="M702.1,1205.8c-8.6-29-17.2-58.1-21.2-88c-4-29.9-3.3-61,6.6-89.6c7.4,28.1,27.3,51.4,36.2,79
		c3.6,11.1,5.2,22.8,6.3,34.5c1.7,17.8,1.7,36.3-3.2,53.7c-2.2,7.8-5.4,17.6-11,23.7C706.9,1228.9,704.5,1214.1,702.1,1205.8z"/>
	<path class="st1" d="M690.2,1068.1c-0.3,26.2,9.3,51.2,14.8,76.8c5.4,25.4,6.9,51.5,7.4,77.5"/>
	<path class="st11" d="M707.7,1205.1c0.8-30.2,1.6-60.5,7.1-90.2c5.5-29.7,15.8-59,34-83.1c-1.7,29,10.1,57.3,9.9,86.3
		c-0.1,11.7-2.1,23.3-4.7,34.7c-3.9,17.5-9.6,35.1-19.6,50.1c-4.5,6.7-10.6,15.1-17.8,19.1C705.2,1228.5,707.5,1213.7,707.7,1205.1z
		"/>
	<path class="st1" d="M739,1070.4c-8.4,24.8-7,51.6-9.7,77.6c-2.7,25.8-9.4,51.1-16.9,76"/>
	<path class="st11" d="M716.6,1213.5c9.1-23.6,18.2-47.2,31.3-68.3c13.1-21.1,30.4-39.7,53.4-50.6c-9.5,22.2-6.8,50-14.9,72.9
		c-3.3,9.2-8.3,17.5-13.8,25.4c-8.4,12.1-18.3,23.5-31.4,30.8c-5.9,3.3-13.6,7.2-21.2,7.2C707.9,1230.9,714,1220.3,716.6,1213.5z"/>
	<path class="st1" d="M784.2,1120c-14.4,15.9-20.6,37.7-30.1,57.1c-9.5,19.2-22.5,36.3-36.1,52.6"/>
	<path class="st11" d="M717.5,1208.3c-9.2-28.8-18.4-57.7-32-84.7c-13.5-27-31.6-52.3-55.8-70.4c9.7,27.4,6.3,57.8,14.5,85.7
		c3.3,11.2,8.5,21.8,14.2,32c8.7,15.7,19,31,32.8,42.6c6.2,5.2,14.4,11.5,22.4,13.4C726.5,1230.1,720.2,1216.5,717.5,1208.3z"/>
	<path class="st1" d="M646.9,1083.7c15,21.5,21.1,47.6,31,71.8c9.7,24,23.3,46.4,37.4,68.2"/>
	<path class="st11" d="M708.3,1216.6c-15.9-13.9-31.9-27.9-49.8-39.1c-17.9-11.3-37.9-19.8-58.9-21.9c15.7,12.9,24.7,32.4,39.7,46.1
		c6.1,5.5,13,10,20.1,14.1c10.9,6.2,22.6,11.7,35.1,13.6c5.6,0.9,12.8,1.7,18.3-0.1C721.5,1226.4,712.8,1220.6,708.3,1216.6z"/>
	<path class="st1" d="M624.1,1168.9c16.8,7.4,29.9,20.8,44.6,31.8c14.5,10.9,30.8,19.4,47.1,27.3"/>
	<path class="st6" d="M54,1002.4c20.3-29.9,47.7-54.5,77.4-75.2c-24.6,38-49.3,76.1-70.4,116.1c-7.4,14.1-14.4,28.4-23,41.9
		c-2.3,3.6-8.5,16.8-13.9,14.9c-5.2-1.9-2-13.6-1.5-17.8C26.3,1053.6,37.9,1026.3,54,1002.4z"/>
	<path class="st1" d="M113,947.3c-21.2,20.7-37.8,45.6-52.7,71.2c-15.1,25.9-28.8,53-36.1,82.1"/>
	<path class="st6" d="M58.1,1004.1c1.5-36.1-5.9-72.2-17.4-106.5c-2.8,45.2-5.7,90.5-12.5,135.2c-2.4,15.7-5.3,31.4-6.4,47.3
		c-0.3,4.2-3.2,18.6,2.3,20.3c5.3,1.6,9.7-9.7,11.8-13.4C49.9,1061.8,56.9,1032.9,58.1,1004.1z"/>
	<path class="st1" d="M43.5,924.7c4.7,29.3,3.2,59.2-0.1,88.6c-3.3,29.8-8.4,59.7-19.8,87.5"/>
	<path class="st6" d="M23.2,999.5c-10.5-34.6-29.3-66.2-51.5-94.8c12.2,43.6,24.4,87.3,32.7,131.8c2.9,15.6,5.3,31.4,9.5,46.8
		c1.1,4.1,3.1,18.6,8.8,18.4c5.6-0.2,6-12.3,6.7-16.6C34.4,1056.6,31.5,1027.1,23.2,999.5z"/>
	<path class="st1" d="M-16.7,929.3c14.1,26.1,22.5,54.8,29.1,83.7c6.7,29.2,11.7,59.2,10.1,89.1"/>
	<path class="st11" d="M65.7,1180.5c-0.2-33.4,5.7-66.8,17.2-98.4c1.5-4.2,3.2-8.5,6.7-11.5c3.4-3,9.1-4.3,12.9-1.7
		c1.5-1,0.6-3.4-1-4.2c-1.6-0.9-3.6-0.9-5.2-1.8c-4.1-2.4-2.7-8.2-0.7-12.3c17.3-35.3,47.5-65,84.4-82.9c6.1,0.5,10.9,7.9,8,12.9
		c-7.4,12.8-5.8,30-10.5,43.8c-5.6-2.6-12.4-2.4-17.9,0.4c4.9,2.7,9.7,5.4,14.6,8.2c-5.8,20-12.6,41-23.2,59.1
		c-3.8-0.4-7.8-0.1-11.5,0.9c-0.8,0.2-1.7,0.5-2.2,1.1c-1.3,1.3-0.3,3.6,1.4,4.5c1.7,0.8,3.7,0.7,5.6,0.4c0.4,9-2.8,18.2-6.5,26.5
		c-10.1,22.8-21.2,46.8-42.6,61.3c-6.1-0.3-12.3-0.3-18.4-0.6C72.9,1186,65.8,1184.1,65.7,1180.5z"/>
	<path class="st1" d="M149.2,1012.8c-6.7,6.9-10.7,15.6-14.4,24.1c-11.4,25.8-22.2,51.9-32.9,77.9c-2.3,5.6-4.6,11.2-6.9,16.8
		c-5.2,12.5-10.4,25.1-14.5,37.9c-1.8,5.5-3.4,11.1-3.8,16.9"/>
	<path class="st11" d="M93.7,1186.9c26-6.1,50.9-16.9,73.3-31.7c3-2,6-4.1,7.7-7.3c1.7-3.2,1.7-7.9-1.1-10.4c0.5-1.4,2.5-1.1,3.5,0
		c1,1.1,1.4,2.6,2.4,3.7c2.6,2.7,6.9,0.6,9.7-1.7c24.3-20,41.7-49.1,48.8-81.1c-1.6-4.6-8.2-7-11.5-3.8
		c-8.6,8.1-22.2,10.1-32.1,16.3c3,3.8,4.2,9.2,3,14c-3-3.3-6-6.5-9.1-9.8c-14.4,8.3-29.5,17.4-41.7,29.1c1,2.9,1.5,6,1.4,9.1
		c0,0.7-0.1,1.4-0.4,1.9c-0.8,1.2-2.8,0.9-3.7-0.3s-1.2-2.8-1.4-4.3c-7.1,1.3-13.7,5.6-19.4,10c-15.9,12.1-32.5,25.2-39.8,44.6
		c1.4,4.7,2.5,9.5,3.9,14.2C88,1182.4,90.9,1187.6,93.7,1186.9z"/>
	<path class="st1" d="M208.6,1090.7c-4.1,6.5-10.1,11.2-16,15.7c-18,13.7-36.2,26.9-54.5,40.1c-3.9,2.8-7.9,5.7-11.8,8.5
		c-8.8,6.4-17.6,12.7-26.8,18.3c-4,2.4-8,4.7-12.4,6.1"/>
</g>
<g id="plants_2_">
	<path class="st11" d="M5.3,1138.5c-0.8-7.2,0.4-14.8-1.8-21.7c-1.1-3.6-3.1-6.9-4.3-10.5c-1-3-1.4-6.1-1.7-9.2
		c-1.8-16.5-1.2-33.3,1.7-49.6c0.5,4.8,5.6,7.5,9.1,10.9c4.5,4.4,6.7,11,5.6,17.2c-0.7,4.2-2.8,8.6-1.3,12.6c1.5,4,5.9,5.9,8.5,9.3
		c5.4,7.1,1.2,17.2,1.7,26.1c0.3,5.9,2.9,11.6,2.5,17.5c-0.4,4.9-4.3,13.9-10,13.4C9,1153.8,5.8,1143.3,5.3,1138.5z"/>
	<path class="st1" d="M3.7,1073.4c-0.3,8.1,2.6,15.9,4.9,23.7c5.4,18.5,7.3,37.9,7.6,57.2"/>
	<path class="st6" d="M22.2,1217.6c-3.7,0.3-7,2.6-10.4,4c-6.5,2.7-15.1,1.7-19-4.1c2.6,2.4,6.5,2.9,10,2.2c3.5-0.6,6.7-2.2,10-3.5
		c4.7-1.8,9.8-3,14.7-2.1c3.9,0.7,9.3,3.2,8.8,7.5C31.7,1220.4,27.3,1217.1,22.2,1217.6z"/>
	<path class="st6" d="M33.2,1199.5c-2.3-5.3-7.5-9-9.8-14.3c-3.1-6.9-0.8-15,2.7-21.7c3.4-6.7,7.9-13,9.5-20.4
		c2-9.1-0.7-18.5-3.5-27.4c8.7,10.6,11.3,26,6.4,38.8c-1.7,4.5-4.2,8.7-5,13.4c-1.2,7.2,1.9,14.3,3.8,21.3
		c2.7,9.6,4.5,22.8,0.8,32.3C32.5,1218.2,35.8,1205.4,33.2,1199.5z"/>
	<path class="st1" d="M34.8,1249.6c0-0.2,0-0.5,0-0.7"/>
	<path class="st6" d="M42.1,1198.2c-0.3-9.4-9.6-17.1-8.6-26.5c0.8-7.7,8.1-12.9,11.7-19.8c4-7.5,3.4-16.5,3.7-25
		c0.3-8.5,2.3-18,9.4-22.6c-3.7,5.7-3.1,13-3.3,19.7c-0.3,11.4-2.9,22.7-7.8,33c-2.3,4.9-5.1,9.7-5.3,15.1
		c-0.1,5.1,2.1,9.8,3.5,14.7c2.3,8.4,2.3,30-7.5,34.2C35.7,1213.6,42.4,1205.8,42.1,1198.2z"/>
	<path class="st6" d="M43.1,1209.4c3.2-3.3,6.9-6.5,8.2-10.9c1.7-5.6-0.9-11.5-2.4-17.2c-2.6-9.7-1.9-20.3,1.8-29.7
		c3.8-9.4,10.5-17.4,14.6-26.8c5-11.5,5.8-24.4,6.4-36.9c2.5,7.4,4.8,15,6.7,22.6c2.4,9.6,4.2,19.9,0.7,29.2
		c-2.5,6.4-7.3,11.8-9.8,18.2c-3.8,9.7-2,20.7-3.8,31c-1.6,9.2-6.5,17.8-13.4,24.1c-2.3,2.1-8.5,8-11.9,7.8
		C34.4,1220.5,40.6,1212,43.1,1209.4z"/>
	<path class="st6" d="M51.6,1208.6c5.4-1.9,11.5-2.7,15.9-6.4c4.8-4,6.7-10.6,7.1-16.8c0.4-6.2-0.4-12.5,0.3-18.7
		c1.2-11.5,7.3-22.1,15.7-30s18.9-13.3,29.8-17c-7.6,7.1-15.6,15.1-16.7,25.5c-0.6,5.7,1,11.6-0.7,17c-2.4,7.6-10.8,12.3-12.6,20
		c-0.6,2.5-0.5,5.1-1,7.6c-1.4,6.2-6.9,10.6-12.2,14.1c-8.5,5.6-17.6,10.6-27.1,14.4C36.9,1223.5,42.9,1211.5,51.6,1208.6z"/>
	<path class="st6" d="M27.1,1206.5c-4.9-4.4-9.9-10-9.1-16.5c0.3-2.6,1.6-5.1,1.6-7.7c0-2.7-1.4-5.1-2.1-7.7
		c-2.6-9.2,3.5-18.8,2.8-28.4c-0.9-11.5-11.5-21.9-8.1-32.9c-3.2,10.5-6.4,21.4-5.1,32.3c0.6,4.8,2.1,9.6,1.9,14.4
		c-0.2,6.2-3,12-3.8,18.1c-1.4,10.3,3.3,21.1,11.7,27.2c3.7,2.6,15.1,11.6,19.1,11C33.9,1212.4,30.4,1209.4,27.1,1206.5z"/>
	<path class="st6" d="M59.9,1210.2c8.5-1.2,17.4-0.9,25.5-3.6c5.9-2,11.3-5.6,17.4-6.6c6.8-1.2,13.9,0.9,19.9,4.3
		c6,3.5,11.1,8.3,16.1,13c-14.6-7.4-31.1-15-46.8-10.3c-8.4,2.5-15.5,8.3-23.9,10.5c-8.5,2.2-19.6,2.6-28.3,2.7
		C43.6,1213.7,52.7,1211.2,59.9,1210.2z"/>
</g>
<g id="clouds">
	<path class="st2" d="M677.4,26.8c15.6-8.7,34.7-14.4,51.3-7.6c17.1,7,28.7,26.4,47.2,27.9c3.4,4.4,0.9,11.3-3.7,14.4
		c-4.6,3.1-10.5,3.5-16,3.7c-40.5,1.6-91.3,6-129.6-6.2C638.7,46.7,660.9,35.9,677.4,26.8z"/>
	<path class="st2" d="M643.5,351.9c6.1-2.3,12.3-4.6,18.4-7c7.2-2.7,14.4-5.4,20.9-9.4c3-1.8,5.9-3.9,9.2-5.1
		c8.9-3.2,18.6,0.5,27.2,4.2c3.6,1.5,7.3,3.1,10.7,5c9.9,5.6,17.6,14.2,25.2,22.6c-45.2,6.8-91.2,8.1-136.8,3.9
		c-2.9-0.3-5.1-1.2-6.6-3.6C622.5,359.8,633.1,355.9,643.5,351.9z"/>
	<path class="st2" d="M145.8,618.7c10-4.6,21.2-6.8,32-4.7c3.4,0.7,7.3,2.5,7.4,6c0.1,2-1.4,3.9-3.2,4.9s-3.9,1.3-5.9,1.5
		c-13.4,1.5-27,1.3-40.4-0.7c-1.4-0.2-3.3-1.2-2.6-2.5C137.3,621.4,141.6,620.6,145.8,618.7z"/>
	<path class="st2" d="M345.5,533.9c4-0.4,8.1,0.1,12.1,0.6c1.2,0.2,2.6,0.4,3.5,1.2c1,0.8,1.4,2.4,0.5,3.3c-0.4,0.4-1,0.6-1.5,0.7
		c-6.8,1.8-18.7,2.2-24.9-1.1C336.5,535.1,342.3,534.2,345.5,533.9z"/>
	<path class="st2" d="M594.6,72.7c4-0.4,8.1,0.1,12.1,0.6c1.2,0.2,2.6,0.4,3.5,1.2s1.4,2.4,0.5,3.3c-0.4,0.4-1,0.6-1.5,0.7
		c-6.8,1.8-18.7,2.2-24.9-1.1C585.6,73.9,591.3,73,594.6,72.7z"/>
	<path class="st2" d="M236.7,74.8c10-4.6,21.2-6.8,32-4.7c3.4,0.7,7.3,2.5,7.4,6c0.1,2-1.4,3.9-3.2,4.9s-3.9,1.3-5.9,1.5
		c-13.4,1.5-27,1.3-40.4-0.7c-1.4-0.2-3.3-1.2-2.6-2.5C228.2,77.4,232.5,76.7,236.7,74.8z"/>
	<path class="st2" d="M610,104.7c-2.6-0.1-5.8-1.9-5.3-4.5c0.6-3.3,5.4-2.9,8.8-3.2c7.3-0.6,12.1-8.1,19.1-10.2
		c4.2-1.3,8.8-0.6,12.9-2c4.5-1.5,7.8-5.3,11.9-7.6c9.4-5.2,21.1-2,30.7,2.6c9.6,4.7,19,10.9,29.6,11.7c7.8,0.6,17.5-1,21.9,5.6
		c-3.8,3.4-9.3,3.8-14.4,3.9C687.1,102.2,648.2,105.7,610,104.7z"/>
	<path class="st2" d="M742.4,325.8c4-0.4,8.1,0.1,12.1,0.6c1.2,0.2,2.6,0.4,3.5,1.2c1,0.8,1.4,2.4,0.5,3.3c-0.4,0.4-1,0.6-1.5,0.7
		c-6.8,1.8-18.7,2.2-24.9-1.1C733.4,327.1,739.1,326.1,742.4,325.8z"/>
	<path class="st2" d="M132.4,598.9c4-0.4,8.1,0.1,12.1,0.6c1.2,0.2,2.6,0.4,3.5,1.2c1,0.8,1.4,2.4,0.5,3.3c-0.4,0.4-1,0.6-1.5,0.7
		c-6.8,1.8-18.7,2.2-24.9-1.1C123.4,600.2,129.1,599.2,132.4,598.9z"/>
	<path class="st2" d="M45,93.3c-10.3-3.7-21.7-5.1-32.3-2.1c-3.3,0.9-7.1,3.1-6.9,6.6c0.1,2,1.7,3.7,3.6,4.6s3.9,0.9,6,1
		c13.5,0.4,27.1-1,40.2-4c1.4-0.3,3.1-1.5,2.4-2.7C53.7,95.3,49.3,94.9,45,93.3z"/>
	<rect x="113" y="156.6" class="st13" width="579.4" height="191.6"/>
	<text transform="matrix(1 0 0 1 299.2882 171.4381)"><tspan x="0" y="0" class="st14 st15">father john misty presents</tspan><tspan x="-178.3" y="114" class="st16 st17">MISTY FEST</tspan><tspan x="58.7" y="157.2" class="st14 st15">JULY 2018</tspan></text>
	<path class="st2" d="M95.9,309.3c2.6-0.1,5.7-2.1,5.2-4.7c-0.7-3.3-5.5-2.8-8.9-2.9c-7.3-0.4-12.3-7.7-19.4-9.7
		c-4.2-1.2-8.8-0.4-12.9-1.7c-4.5-1.4-7.9-5.1-12.1-7.3c-9.5-4.9-21.1-1.5-30.6,3.4c-9.5,4.9-18.7,11.4-29.3,12.5
		c-7.8,0.8-17.6-0.5-21.7,6.2c3.9,3.3,9.4,3.5,14.5,3.5C18.8,308.8,57.8,311.4,95.9,309.3z"/>
	<path class="st2" d="M73.2,277.1c4-0.4,8.1,0.1,12.1,0.6c1.2,0.2,2.6,0.4,3.5,1.2c1,0.8,1.4,2.4,0.5,3.3c-0.4,0.4-1,0.6-1.5,0.7
		c-6.8,1.8-18.7,2.2-24.9-1.1C64.2,278.3,69.9,277.4,73.2,277.1z"/>
	<path class="st2" d="M764.7,206.7c10-4.6,21.2-6.8,32-4.7c3.4,0.7,7.3,2.5,7.4,6c0.1,2-1.4,3.9-3.2,4.9c-1.8,1-3.9,1.3-5.9,1.5
		c-13.4,1.5-27,1.3-40.4-0.7c-1.4-0.2-3.3-1.2-2.6-2.5C756.2,209.4,760.5,208.6,764.7,206.7z"/>
	<path class="st2" d="M748.8,193c4-0.4,8.1,0.1,12.1,0.6c1.2,0.2,2.6,0.4,3.5,1.2c1,0.8,1.4,2.4,0.5,3.3c-0.4,0.4-1,0.6-1.5,0.7
		c-6.8,1.8-18.7,2.2-24.9-1.1C739.8,194.2,745.5,193.3,748.8,193z"/>
	<rect x="114.6" y="673.8" class="st13" width="560.9" height="157.6"/>
	<text transform="matrix(1 0 0 1 350.5841 688.6358)"><tspan x="0" y="0" class="st14 st15">with guests</tspan><tspan x="-41.9" y="50.4" class="st14 st18">THE VACCINES</tspan><tspan x="-9.1" y="79.2" class="st14 st18">ALVVAYS</tspan><tspan x="-89.4" y="108" class="st14 st18">REX ORANGE COUNTY</tspan><tspan x="-8.5" y="136.8" class="st14 st18">DR. DOG</tspan></text>
</g>
</svg>
